# xmcd
#
# Track frame offsets: 
#        150
#        17764
#        30413
#        47725
#        63350
#        77502
#        91780
#        114513
#        126218
#        137412
#        158626
#        178082
#        192920
#        207009
#
# Disc length: 2950 seconds
#
# Revision: 0
# Processed by: cddbd v1.5.2PL0 Copyright (c) Steve Scherf et al.
# Submitted via: ExactAudioCopy v0.99pb5
#
DISCID=a90b840e
DTITLE=Bloodshot Eyes - Night Walk Boogie
DYEAR=2011
DGENRE=Blues
TTITLE0=See Me In The Evening
TTITLE1=Knock Me A Kiss
TTITLE2=Cheers Beer Shuffle
TTITLE3=Read My Lips
TTITLE4=Lying To Yourself
TTITLE5=Night Walk Boogie
TTITLE6=Shattered Mailbox
TTITLE7=Jealous Man
TTITLE8=Lovin Machine
TTITLE9=Who's Been Talkin'
TTITLE10=Rockinitis
TTITLE11=Daddy's Precious Pearl
TTITLE12=Knee Deep Sea Diver
TTITLE13=Gonna Send You Back To Georgia
EXTD=
EXTT0=
EXTT1=
EXTT2=
EXTT3=
EXTT4=
EXTT5=
EXTT6=
EXTT7=
EXTT8=
EXTT9=
EXTT10=
EXTT11=
EXTT12=
EXTT13=
PLAYORDER=
